<svg xmlns="http://www.w3.org/2000/svg" width="1200" height="630" viewBox="0 0 1200 630">
  <defs>
    <linearGradient id="bg" x1="0" y1="0" x2="1" y2="1">
      <stop offset="0" stop-color="#050816"/>
      <stop offset="0.58" stop-color="#0b1020"/>
      <stop offset="1" stop-color="#14113a"/>
    </linearGradient>
    <linearGradient id="cta" x1="0" y1="0" x2="1" y2="0">
      <stop offset="0" stop-color="#38bdf8"/>
      <stop offset="1" stop-color="#22c55e"/>
    </linearGradient>
    <radialGradient id="cyanGlow" cx="50%" cy="50%" r="50%">
      <stop offset="0" stop-color="#38bdf8" stop-opacity=".34"/>
      <stop offset="1" stop-color="#38bdf8" stop-opacity="0"/>
    </radialGradient>
    <radialGradient id="violetGlow" cx="50%" cy="50%" r="50%">
      <stop offset="0" stop-color="#8b5cf6" stop-opacity=".28"/>
      <stop offset="1" stop-color="#8b5cf6" stop-opacity="0"/>
    </radialGradient>
    <filter id="softShadow" x="-20%" y="-20%" width="140%" height="140%">
      <feDropShadow dx="0" dy="24" stdDeviation="24" flood-color="#000000" flood-opacity=".34"/>
    </filter>
  </defs>

  <rect width="1200" height="630" fill="url(#bg)"/>
  <circle cx="910" cy="70" r="250" fill="url(#cyanGlow)"/>
  <circle cx="1100" cy="500" r="270" fill="url(#violetGlow)"/>
  <circle cx="600" cy="610" r="220" fill="#22c55e" opacity=".07"/>

  <g opacity=".12" stroke="#f8fafc" stroke-width="1">
    <path d="M0 40H1200M0 80H1200M0 120H1200M0 160H1200M0 200H1200M0 240H1200M0 280H1200M0 320H1200M0 360H1200M0 400H1200M0 440H1200M0 480H1200M0 520H1200M0 560H1200M0 600H1200"/>
    <path d="M40 0V630M80 0V630M120 0V630M160 0V630M200 0V630M240 0V630M280 0V630M320 0V630M360 0V630M400 0V630M440 0V630M480 0V630M520 0V630M560 0V630M600 0V630M640 0V630M680 0V630M720 0V630M760 0V630M800 0V630M840 0V630M880 0V630M920 0V630M960 0V630M1000 0V630M1040 0V630M1080 0V630M1120 0V630M1160 0V630"/>
  </g>

  <g transform="translate(70 70)">
    <rect width="70" height="70" rx="18" fill="#10233f" stroke="#2d587e"/>
    <path d="M22 19v35l12-10 9 17 12-7-10-16 17-3z" fill="#38bdf8"/>
  </g>
  <text x="164" y="103" fill="#f8fafc" font-family="Inter, Segoe UI, Arial, sans-serif" font-size="30" font-weight="900">DigitalClick Systems</text>
  <text x="164" y="132" fill="#94a3b8" font-family="Inter, Segoe UI, Arial, sans-serif" font-size="18">Websites. Systems. Automation. Hosting.</text>

  <text x="74" y="255" fill="#f8fafc" font-family="Inter, Segoe UI, Arial, sans-serif" font-size="58" font-weight="900">
    <tspan x="74" dy="0">Help clients trust,</tspan>
    <tspan x="74" dy="72">click, and take action.</tspan>
  </text>
  <text x="76" y="380" fill="#cbd5e1" font-family="Inter, Segoe UI, Arial, sans-serif" font-size="24">
    <tspan x="76" dy="0">Modern websites, dashboards, automation, hosting,</tspan>
    <tspan x="76" dy="34">and support for growing businesses.</tspan>
  </text>

  <g transform="translate(74 476)">
    <rect width="235" height="54" rx="27" fill="url(#cta)"/>
    <text x="117.5" y="35" text-anchor="middle" fill="#04111f" font-family="Inter, Segoe UI, Arial, sans-serif" font-size="18" font-weight="900">START A PROJECT</text>
  </g>
  <g transform="translate(326 476)">
    <rect width="190" height="54" rx="27" fill="#111827" stroke="#334155"/>
    <text x="95" y="35" text-anchor="middle" fill="#f8fafc" font-family="Inter, Segoe UI, Arial, sans-serif" font-size="18" font-weight="900">VIEW SERVICES</text>
  </g>
  <text x="74" y="596" fill="#38bdf8" font-family="Inter, Segoe UI, Arial, sans-serif" font-size="18" font-weight="800">Trust-first design  •  Clear CTAs  •  Mobile ready</text>

  <g transform="translate(720 105)" filter="url(#softShadow)">
    <rect width="405" height="430" rx="24" fill="#0b1020" stroke="#334155"/>
    <text x="43" y="61" fill="#f8fafc" font-family="Inter, Segoe UI, Arial, sans-serif" font-size="21" font-weight="900">BUSINESS CONSOLE</text>
    <text x="43" y="88" fill="#94a3b8" font-family="Inter, Segoe UI, Arial, sans-serif" font-size="17">Launch snapshot</text>
    <circle cx="328" cy="51" r="6" fill="#38bdf8"/>
    <circle cx="351" cy="51" r="6" fill="#8b5cf6"/>
    <circle cx="374" cy="51" r="6" fill="#22c55e"/>
    <line x1="43" y1="110" x2="365" y2="110" stroke="#334155" opacity=".75"/>

    <g transform="translate(40 140)">
      <rect width="136" height="108" rx="16" fill="#151c2e" stroke="#26354d"/>
      <text x="22" y="59" fill="#f8fafc" font-family="Inter, Segoe UI, Arial, sans-serif" font-size="36" font-weight="900">12+</text>
      <text x="22" y="85" fill="#94a3b8" font-family="Inter, Segoe UI, Arial, sans-serif" font-size="16">Websites</text>
    </g>
    <g transform="translate(196 140)">
      <rect width="136" height="108" rx="16" fill="#151c2e" stroke="#26354d"/>
      <text x="22" y="59" fill="#f8fafc" font-family="Inter, Segoe UI, Arial, sans-serif" font-size="36" font-weight="900">8+</text>
      <text x="22" y="85" fill="#94a3b8" font-family="Inter, Segoe UI, Arial, sans-serif" font-size="16">Systems</text>
    </g>
    <g transform="translate(40 270)">
      <rect width="136" height="108" rx="16" fill="#151c2e" stroke="#26354d"/>
      <text x="22" y="59" fill="#f8fafc" font-family="Inter, Segoe UI, Arial, sans-serif" font-size="36" font-weight="900">24/7</text>
      <text x="22" y="85" fill="#94a3b8" font-family="Inter, Segoe UI, Arial, sans-serif" font-size="16">Support</text>
    </g>
    <g transform="translate(196 270)">
      <rect width="136" height="108" rx="16" fill="#151c2e" stroke="#26354d"/>
      <text x="22" y="59" fill="#f8fafc" font-family="Inter, Segoe UI, Arial, sans-serif" font-size="36" font-weight="900">81%</text>
      <text x="22" y="85" fill="#94a3b8" font-family="Inter, Segoe UI, Arial, sans-serif" font-size="16">Safety</text>
    </g>
  </g>
</svg>
